<svg version="1.1" viewBox="0.0 0.0 961.8320209973754 454.8635170603674" fill="none" stroke="none" stroke-linecap="square" stroke-miterlimit="10" xmlns:xlink="http://www.w3.org/1999/xlink" xmlns="http://www.w3.org/2000/svg"><clipPath id="p.0"><path d="m0 0l961.83203 0l0 454.86353l-961.83203 0l0 -454.86353z" clip-rule="nonzero"/></clipPath><g clip-path="url(#p.0)"><path fill="#000000" fill-opacity="0.0" d="m0 0l961.83203 0l0 454.86353l-961.83203 0z" fill-rule="evenodd"/><path fill="#ff5094" d="m419.91077 97.61155l0 0c0 -20.638924 16.73114 -37.37008 37.370087 -37.37008l0 0c9.911133 0 19.416382 3.9371948 26.424622 10.945442c7.0082397 7.0082474 10.945435 16.513474 10.945435 26.424637l0 0c0 20.638924 -16.73114 37.37008 -37.370056 37.37008l0 0c-20.638947 0 -37.370087 -16.731155 -37.370087 -37.37008z" fill-rule="evenodd"/><path fill="#ff5094" d="m287.7848 172.3517l0 0c0 -20.638916 16.73114 -37.37007 37.370056 -37.37007l0 0c9.911163 0 19.416382 3.9371948 26.424652 10.945435c7.0082397 7.008255 10.945435 16.513489 10.945435 26.424637l0 0c0 20.638931 -16.73114 37.370087 -37.370087 37.370087l0 0c-20.638916 0 -37.370056 -16.731155 -37.370056 -37.370087z" fill-rule="evenodd"/><path fill="#ff5094" d="m419.91077 360.0l0 0c0 -20.638916 16.73114 -37.370087 37.370087 -37.370087l0 0c9.911133 0 19.416382 3.9371948 26.424622 10.945465c7.0082397 7.0082397 10.945435 16.513458 10.945435 26.424622l0 0c0 20.638916 -16.73114 37.370087 -37.370056 37.370087l0 0c-20.638947 0 -37.370087 -16.73117 -37.370087 -37.370087z" fill-rule="evenodd"/><path fill="#ff5094" d="m548.7664 285.25986l0 0c0 -20.638947 16.73114 -37.370087 37.370056 -37.370087l0 0c9.911194 0 19.416382 3.9371796 26.424622 10.945435c7.008301 7.0082397 10.945496 16.513489 10.945496 26.424652l0 0c0 20.638916 -16.731201 37.370056 -37.370117 37.370056l0 0c-20.638916 0 -37.370056 -16.73114 -37.370056 -37.370056z" fill-rule="evenodd"/><path fill="#ff5094" d="m548.7664 172.3517l0 0c0 -20.638916 16.73114 -37.37007 37.370056 -37.37007l0 0c9.911194 0 19.416382 3.9371948 26.424622 10.945435c7.008301 7.008255 10.945496 16.513489 10.945496 26.424637l0 0c0 20.638931 -16.731201 37.370087 -37.370117 37.370087l0 0c-20.638916 0 -37.370056 -16.731155 -37.370056 -37.370087z" fill-rule="evenodd"/><path fill="#ff5094" d="m287.7848 285.25986l0 0c0 -20.638947 16.73114 -37.370087 37.370056 -37.370087l0 0c9.911163 0 19.416382 3.9371796 26.424652 10.945435c7.0082397 7.0082397 10.945435 16.513489 10.945435 26.424652l0 0c0 20.638916 -16.73114 37.370056 -37.370087 37.370056l0 0c-20.638916 0 -37.370056 -16.73114 -37.370056 -37.370056z" fill-rule="evenodd"/><path fill="#000000" fill-opacity="0.0" d="m432.27298 72.87139l50.015747 0l0 49.480316l-50.015747 0z" fill-rule="evenodd"/><path fill="#ffffff" d="m451.15762 95.62029q1.03125 0 1.953125 0.34375q0.9375 0.328125 1.625 0.984375q0.703125 0.65625 1.109375 1.609375q0.40625 0.953125 0.40625 2.1875q0 1.1875 -0.4375 2.203125q-0.421875 1.015625 -1.203125 1.78125q-0.78125 0.75 -1.875 1.1875q-1.078125 0.421875 -2.390625 0.421875q-1.296875 0 -2.34375 -0.40625q-1.046875 -0.421875 -1.796875 -1.171875q-0.75 -0.765625 -1.15625 -1.84375q-0.390625 -1.09375 -0.390625 -2.4375q0 -1.125 0.5 -2.390625q0.5 -1.28125 1.59375 -2.75l4.359375 -5.875q0.171875 -0.203125 0.46875 -0.359375q0.296875 -0.15625 0.6875 -0.15625l1.890625 0l-5.953125 7.5625q0.609375 -0.421875 1.34375 -0.65625q0.75 -0.234375 1.609375 -0.234375zm-4.4375 5.234375q0 0.828125 0.234375 1.515625q0.25 0.671875 0.703125 1.171875q0.46875 0.484375 1.125 0.765625q0.671875 0.265625 1.53125 0.265625q0.859375 0 1.546875 -0.28125q0.703125 -0.28125 1.203125 -0.765625q0.5 -0.5 0.765625 -1.171875q0.265625 -0.671875 0.265625 -1.453125q0 -0.84375 -0.265625 -1.515625q-0.25 -0.6875 -0.734375 -1.15625q-0.484375 -0.484375 -1.15625 -0.734375q-0.671875 -0.25 -1.46875 -0.25q-0.875 0 -1.578125 0.296875q-0.6875 0.296875 -1.171875 0.796875q-0.484375 0.5 -0.75 1.15625q-0.25 0.640625 -0.25 1.359375zm23.763855 -3.296875q0 2.25 -0.484375 3.90625q-0.484375 1.65625 -1.328125 2.734375q-0.84375 1.078125 -2.0 1.609375q-1.140625 0.53125 -2.4375 0.53125q-1.328125 0 -2.46875 -0.53125q-1.125 -0.53125 -1.96875 -1.609375q-0.828125 -1.078125 -1.3125 -2.734375q-0.484375 -1.65625 -0.484375 -3.90625q0 -2.25 0.484375 -3.90625q0.484375 -1.65625 1.3125 -2.734375q0.84375 -1.09375 1.96875 -1.625q1.140625 -0.53125 2.46875 -0.53125q1.296875 0 2.4375 0.53125q1.15625 0.53125 2.0 1.625q0.84375 1.078125 1.328125 2.734375q0.484375 1.65625 0.484375 3.90625zm-2.21875 0q0 -1.96875 -0.34375 -3.296875q-0.328125 -1.34375 -0.890625 -2.15625q-0.546875 -0.828125 -1.28125 -1.171875q-0.734375 -0.359375 -1.515625 -0.359375q-0.796875 0 -1.53125 0.359375q-0.734375 0.34375 -1.28125 1.171875q-0.546875 0.8125 -0.890625 2.15625q-0.328125 1.328125 -0.328125 3.296875q0 1.96875 0.328125 3.3125q0.34375 1.328125 0.890625 2.140625q0.546875 0.8125 1.28125 1.171875q0.734375 0.34375 1.53125 0.34375q0.78125 0 1.515625 -0.34375q0.734375 -0.359375 1.28125 -1.171875q0.5625 -0.8125 0.890625 -2.140625q0.34375 -1.34375 0.34375 -3.3125z" fill-rule="nonzero"/><path fill="#000000" fill-opacity="0.0" d="m293.94226 147.61154l62.4252 0l0 49.480316l-62.4252 0z" fill-rule="evenodd"/><path fill="#ffffff" d="m310.3412 173.69357l0 5.578125l-1.796875 0l0 -13.375l3.78125 0q1.265625 0 2.1875 0.265625q0.921875 0.25 1.515625 0.734375q0.609375 0.484375 0.890625 1.171875q0.296875 0.6875 0.296875 1.546875q0 0.703125 -0.234375 1.328125q-0.21875 0.609375 -0.640625 1.09375q-0.421875 0.484375 -1.03125 0.84375q-0.609375 0.34375 -1.390625 0.515625q0.34375 0.1875 0.59375 0.5625l3.90625 5.3125l-1.609375 0q-0.484375 0 -0.71875 -0.375l-3.46875 -4.78125q-0.15625 -0.21875 -0.34375 -0.3125q-0.1875 -0.109375 -0.5625 -0.109375l-1.375 0zm0 -1.3125l1.890625 0q0.796875 0 1.390625 -0.1875q0.609375 -0.203125 1.015625 -0.546875q0.40625 -0.34375 0.609375 -0.828125q0.203125 -0.5 0.203125 -1.078125q0 -1.203125 -0.796875 -1.796875q-0.78125 -0.609375 -2.328125 -0.609375l-1.984375 0l0 5.046875zm13.514618 -2.703125q0.84375 0 1.5625 0.28125q0.71875 0.28125 1.234375 0.828125q0.53125 0.53125 0.8125 1.328125q0.296875 0.78125 0.296875 1.78125q0 0.390625 -0.078125 0.53125q-0.078125 0.125 -0.3125 0.125l-6.296875 0q0.015625 0.890625 0.234375 1.5625q0.234375 0.65625 0.625 1.109375q0.390625 0.4375 0.9375 0.65625q0.546875 0.21875 1.203125 0.21875q0.625 0 1.078125 -0.140625q0.453125 -0.15625 0.78125 -0.3125q0.328125 -0.171875 0.546875 -0.3125q0.21875 -0.15625 0.375 -0.15625q0.21875 0 0.328125 0.15625l0.46875 0.609375q-0.3125 0.375 -0.75 0.65625q-0.421875 0.265625 -0.921875 0.453125q-0.484375 0.171875 -1.015625 0.25q-0.515625 0.09375 -1.015625 0.09375q-0.984375 0 -1.8125 -0.328125q-0.828125 -0.328125 -1.4375 -0.96875q-0.59375 -0.640625 -0.9375 -1.578125q-0.328125 -0.9375 -0.328125 -2.171875q0 -0.984375 0.296875 -1.84375q0.3125 -0.859375 0.875 -1.484375q0.578125 -0.625 1.390625 -0.984375q0.828125 -0.359375 1.859375 -0.359375zm0.03125 1.21875q-1.203125 0 -1.890625 0.703125q-0.6875 0.6875 -0.859375 1.921875l5.140625 0q0 -0.578125 -0.171875 -1.0625q-0.15625 -0.484375 -0.46875 -0.828125q-0.296875 -0.359375 -0.75 -0.546875q-0.4375 -0.1875 -1.0 -0.1875zm11.400879 0.484375q-0.109375 0.203125 -0.34375 0.203125q-0.140625 0 -0.3125 -0.09375q-0.171875 -0.109375 -0.4375 -0.234375q-0.25 -0.125 -0.609375 -0.234375q-0.359375 -0.109375 -0.84375 -0.109375q-0.40625 0 -0.75 0.109375q-0.328125 0.109375 -0.578125 0.296875q-0.234375 0.1875 -0.359375 0.4375q-0.125 0.234375 -0.125 0.53125q0 0.359375 0.203125 0.609375q0.21875 0.234375 0.5625 0.421875q0.34375 0.171875 0.78125 0.3125q0.4375 0.125 0.890625 0.28125q0.46875 0.15625 0.90625 0.34375q0.4375 0.1875 0.78125 0.46875q0.359375 0.28125 0.5625 0.6875q0.203125 0.40625 0.203125 0.96875q0 0.65625 -0.234375 1.21875q-0.21875 0.546875 -0.6875 0.953125q-0.453125 0.40625 -1.125 0.640625q-0.65625 0.234375 -1.515625 0.234375q-0.984375 0 -1.796875 -0.328125q-0.796875 -0.328125 -1.359375 -0.828125l0.390625 -0.625q0.078125 -0.125 0.171875 -0.1875q0.109375 -0.078125 0.28125 -0.078125q0.15625 0 0.34375 0.140625q0.1875 0.125 0.453125 0.28125q0.265625 0.15625 0.640625 0.296875q0.390625 0.125 0.953125 0.125q0.484375 0 0.84375 -0.125q0.375 -0.125 0.609375 -0.328125q0.25 -0.21875 0.359375 -0.5q0.125 -0.28125 0.125 -0.609375q0 -0.390625 -0.21875 -0.640625q-0.203125 -0.25 -0.546875 -0.4375q-0.34375 -0.1875 -0.796875 -0.3125q-0.4375 -0.140625 -0.90625 -0.28125q-0.453125 -0.15625 -0.90625 -0.34375q-0.4375 -0.203125 -0.78125 -0.484375q-0.34375 -0.296875 -0.5625 -0.71875q-0.203125 -0.421875 -0.203125 -1.03125q0 -0.53125 0.21875 -1.03125q0.234375 -0.5 0.65625 -0.875q0.4375 -0.390625 1.0625 -0.609375q0.625 -0.21875 1.421875 -0.21875q0.9375 0 1.671875 0.296875q0.75 0.28125 1.28125 0.796875l-0.375 0.609375zm5.5499573 8.046875q-1.109375 0 -1.71875 -0.625q-0.59375 -0.625 -0.59375 -1.8125l0 -5.78125l-1.140625 0q-0.15625 0 -0.265625 -0.078125q-0.09375 -0.09375 -0.09375 -0.28125l0 -0.65625l1.546875 -0.203125l0.390625 -2.921875q0.015625 -0.140625 0.109375 -0.21875q0.109375 -0.09375 0.265625 -0.09375l0.84375 0l0 3.25l2.703125 0l0 1.203125l-2.703125 0l0 5.671875q0 0.59375 0.28125 0.890625q0.296875 0.28125 0.75 0.28125q0.265625 0 0.453125 -0.0625q0.203125 -0.078125 0.328125 -0.15625q0.140625 -0.078125 0.234375 -0.140625q0.109375 -0.078125 0.1875 -0.078125q0.125 0 0.234375 0.15625l0.484375 0.796875q-0.4375 0.390625 -1.046875 0.625q-0.59375 0.234375 -1.25 0.234375z" fill-rule="nonzero"/><path fill="#000000" fill-opacity="0.0" d="m432.27298 335.25986l50.015747 0l0 49.480286l-50.015747 0z" fill-rule="evenodd"/><path fill="#ffffff" d="m451.15762 358.00876q1.03125 0 1.953125 0.34375q0.9375 0.328125 1.625 0.984375q0.703125 0.65625 1.109375 1.609375q0.40625 0.953125 0.40625 2.1875q0 1.1875 -0.4375 2.203125q-0.421875 1.015625 -1.203125 1.78125q-0.78125 0.75 -1.875 1.1875q-1.078125 0.421875 -2.390625 0.421875q-1.296875 0 -2.34375 -0.40625q-1.046875 -0.421875 -1.796875 -1.171875q-0.75 -0.765625 -1.15625 -1.84375q-0.390625 -1.09375 -0.390625 -2.4375q0 -1.125 0.5 -2.390625q0.5 -1.28125 1.59375 -2.75l4.359375 -5.875q0.171875 -0.203125 0.46875 -0.359375q0.296875 -0.15625 0.6875 -0.15625l1.890625 0l-5.953125 7.5625q0.609375 -0.421875 1.34375 -0.65625q0.75 -0.234375 1.609375 -0.234375zm-4.4375 5.234375q0 0.828125 0.234375 1.515625q0.25 0.671875 0.703125 1.171875q0.46875 0.484375 1.125 0.765625q0.671875 0.265625 1.53125 0.265625q0.859375 0 1.546875 -0.28125q0.703125 -0.28125 1.203125 -0.765625q0.5 -0.5 0.765625 -1.171875q0.265625 -0.671875 0.265625 -1.453125q0 -0.84375 -0.265625 -1.515625q-0.25 -0.6875 -0.734375 -1.15625q-0.484375 -0.484375 -1.15625 -0.734375q-0.671875 -0.25 -1.46875 -0.25q-0.875 0 -1.578125 0.296875q-0.6875 0.296875 -1.171875 0.796875q-0.484375 0.5 -0.75 1.15625q-0.25 0.640625 -0.25 1.359375zm22.295105 -10.96875q0 0.46875 -0.296875 0.765625q-0.28125 0.28125 -0.96875 0.28125l-5.390625 0l-0.796875 4.515625q1.34375 -0.28125 2.484375 -0.28125q1.34375 0 2.375 0.390625q1.03125 0.390625 1.71875 1.09375q0.703125 0.6875 1.046875 1.640625q0.359375 0.953125 0.359375 2.0625q0 1.375 -0.484375 2.484375q-0.484375 1.09375 -1.3125 1.890625q-0.828125 0.78125 -1.96875 1.203125q-1.125 0.40625 -2.421875 0.40625q-0.765625 0 -1.46875 -0.15625q-0.6875 -0.140625 -1.296875 -0.390625q-0.59375 -0.25 -1.109375 -0.578125q-0.515625 -0.328125 -0.90625 -0.6875l0.640625 -0.90625q0.21875 -0.3125 0.578125 -0.3125q0.234375 0 0.53125 0.1875q0.3125 0.1875 0.734375 0.421875q0.4375 0.21875 1.015625 0.40625q0.59375 0.1875 1.390625 0.1875q0.90625 0 1.625 -0.28125q0.71875 -0.296875 1.21875 -0.828125q0.515625 -0.53125 0.796875 -1.28125q0.28125 -0.75 0.28125 -1.671875q0 -0.796875 -0.234375 -1.4375q-0.234375 -0.65625 -0.71875 -1.109375q-0.46875 -0.46875 -1.1875 -0.71875q-0.703125 -0.25 -1.640625 -0.25q-0.65625 0 -1.359375 0.109375q-0.6875 0.109375 -1.421875 0.34375l-1.34375 -0.390625l1.390625 -8.046875l8.140625 0l0 0.9375z" fill-rule="nonzero"/><path fill="#000000" fill-opacity="0.0" d="m561.1286 260.51968l50.015747 0l0 49.480316l-50.015747 0z" fill-rule="evenodd"/><path fill="#ffffff" d="m580.01324 283.2686q1.03125 0 1.953125 0.34375q0.9375 0.328125 1.625 0.984375q0.703125 0.65625 1.109375 1.609375q0.40625 0.953125 0.40625 2.1875q0 1.1875 -0.4375 2.203125q-0.421875 1.015625 -1.203125 1.78125q-0.78125 0.75 -1.875 1.1875q-1.078125 0.421875 -2.390625 0.421875q-1.296875 0 -2.34375 -0.40625q-1.046875 -0.421875 -1.796875 -1.171875q-0.75 -0.765625 -1.15625 -1.84375q-0.390625 -1.09375 -0.390625 -2.4375q0 -1.125 0.5 -2.390625q0.5 -1.28125 1.59375 -2.75l4.359375 -5.875q0.171875 -0.203125 0.46875 -0.359375q0.296875 -0.15625 0.6875 -0.15625l1.890625 0l-5.953125 7.5625q0.609375 -0.421875 1.34375 -0.65625q0.75 -0.234375 1.609375 -0.234375zm-4.4375 5.234375q0 0.828125 0.234375 1.515625q0.25 0.671875 0.703125 1.171875q0.46875 0.484375 1.125 0.765625q0.671875 0.265625 1.53125 0.265625q0.859375 0 1.546875 -0.28125q0.703125 -0.28125 1.203125 -0.765625q0.5 -0.5 0.765625 -1.171875q0.265625 -0.671875 0.265625 -1.453125q0 -0.84375 -0.265625 -1.515625q-0.25 -0.6875 -0.734375 -1.15625q-0.484375 -0.484375 -1.15625 -0.734375q-0.671875 -0.25 -1.46875 -0.25q-0.875 0 -1.578125 0.296875q-0.6875 0.296875 -1.171875 0.796875q-0.484375 0.5 -0.75 1.15625q-0.25 0.640625 -0.25 1.359375zm21.40448 -0.90625l2.59375 0l0 1.21875q0 0.203125 -0.109375 0.328125q-0.109375 0.125 -0.359375 0.125l-2.125 0l0 4.53125l-1.890625 0l0 -4.53125l-7.625 0q-0.234375 0 -0.40625 -0.125q-0.171875 -0.140625 -0.21875 -0.34375l-0.21875 -1.09375l8.359375 -11.109375l2.0 0l0 11.0zm-1.890625 -7.09375q0 -0.3125 0.015625 -0.671875q0.015625 -0.359375 0.078125 -0.75l-6.25 8.515625l6.15625 0l0 -7.09375z" fill-rule="nonzero"/><path fill="#000000" fill-opacity="0.0" d="m561.1286 147.61154l50.015747 0l0 49.480316l-50.015747 0z" fill-rule="evenodd"/><path fill="#ffffff" d="m580.01324 170.36046q1.03125 0 1.953125 0.34375q0.9375 0.328125 1.625 0.984375q0.703125 0.65625 1.109375 1.609375q0.40625 0.953125 0.40625 2.1875q0 1.1875 -0.4375 2.203125q-0.421875 1.015625 -1.203125 1.78125q-0.78125 0.75 -1.875 1.1875q-1.078125 0.421875 -2.390625 0.421875q-1.296875 0 -2.34375 -0.40625q-1.046875 -0.421875 -1.796875 -1.171875q-0.75 -0.765625 -1.15625 -1.84375q-0.390625 -1.09375 -0.390625 -2.4375q0 -1.125 0.5 -2.390625q0.5 -1.28125 1.59375 -2.75l4.359375 -5.875q0.171875 -0.203125 0.46875 -0.359375q0.296875 -0.15625 0.6875 -0.15625l1.890625 0l-5.953125 7.5625q0.609375 -0.421875 1.34375 -0.65625q0.75 -0.234375 1.609375 -0.234375zm-4.4375 5.234375q0 0.828125 0.234375 1.515625q0.25 0.671875 0.703125 1.171875q0.46875 0.484375 1.125 0.765625q0.671875 0.265625 1.53125 0.265625q0.859375 0 1.546875 -0.28125q0.703125 -0.28125 1.203125 -0.765625q0.5 -0.5 0.765625 -1.171875q0.265625 -0.671875 0.265625 -1.453125q0 -0.84375 -0.265625 -1.515625q-0.25 -0.6875 -0.734375 -1.15625q-0.484375 -0.484375 -1.15625 -0.734375q-0.671875 -0.25 -1.46875 -0.25q-0.875 0 -1.578125 0.296875q-0.6875 0.296875 -1.171875 0.796875q-0.484375 0.5 -0.75 1.15625q-0.25 0.640625 -0.25 1.359375zm17.77948 -12.09375q1.078125 0 2.03125 0.328125q0.953125 0.328125 1.640625 0.953125q0.6875 0.609375 1.078125 1.5q0.40625 0.875 0.40625 2.015625q0 0.953125 -0.296875 1.765625q-0.28125 0.8125 -0.78125 1.5625q-0.484375 0.75 -1.125 1.453125q-0.640625 0.703125 -1.359375 1.4375l-4.53125 4.640625q0.484375 -0.140625 0.96875 -0.21875q0.5 -0.078125 0.953125 -0.078125l5.765625 0q0.34375 0 0.546875 0.203125q0.203125 0.203125 0.203125 0.53125l0 1.296875l-11.46875 0l0 -0.734375q0 -0.21875 0.078125 -0.453125q0.09375 -0.25 0.296875 -0.453125l5.515625 -5.53125q0.6875 -0.703125 1.25 -1.34375q0.5625 -0.640625 0.953125 -1.28125q0.40625 -0.65625 0.625 -1.3125q0.21875 -0.671875 0.21875 -1.4375q0 -0.75 -0.25 -1.3125q-0.234375 -0.578125 -0.65625 -0.953125q-0.40625 -0.375 -0.984375 -0.546875q-0.5625 -0.1875 -1.203125 -0.1875q-0.65625 0 -1.203125 0.1875q-0.546875 0.1875 -0.984375 0.53125q-0.421875 0.34375 -0.71875 0.8125q-0.28125 0.46875 -0.40625 1.03125q-0.09375 0.34375 -0.296875 0.5q-0.1875 0.15625 -0.5 0.15625q-0.0625 0 -0.125 0q-0.0625 -0.015625 -0.140625 -0.015625l-1.125 -0.203125q0.171875 -1.171875 0.640625 -2.078125q0.484375 -0.90625 1.21875 -1.515625q0.75 -0.609375 1.703125 -0.921875q0.953125 -0.328125 2.0625 -0.328125z" fill-rule="nonzero"/><path fill="#000000" fill-opacity="0.0" d="m295.9265 259.3701l58.456696 0l0 51.77951l-58.456696 0z" fill-rule="evenodd"/><path fill="#ffffff" d="m319.03162 283.2686q1.03125 0 1.953125 0.34375q0.9375 0.328125 1.625 0.984375q0.703125 0.65625 1.109375 1.609375q0.40625 0.953125 0.40625 2.1875q0 1.1875 -0.4375 2.203125q-0.421875 1.015625 -1.203125 1.78125q-0.78125 0.75 -1.875 1.1875q-1.078125 0.421875 -2.390625 0.421875q-1.296875 0 -2.34375 -0.40625q-1.046875 -0.421875 -1.796875 -1.171875q-0.75 -0.765625 -1.15625 -1.84375q-0.390625 -1.09375 -0.390625 -2.4375q0 -1.125 0.5 -2.390625q0.5 -1.28125 1.59375 -2.75l4.359375 -5.875q0.171875 -0.203125 0.46875 -0.359375q0.296875 -0.15625 0.6875 -0.15625l1.890625 0l-5.953125 7.5625q0.609375 -0.421875 1.34375 -0.65625q0.75 -0.234375 1.609375 -0.234375zm-4.4375 5.234375q0 0.828125 0.234375 1.515625q0.25 0.671875 0.703125 1.171875q0.46875 0.484375 1.125 0.765625q0.671875 0.265625 1.53125 0.265625q0.859375 0 1.546875 -0.28125q0.703125 -0.28125 1.203125 -0.765625q0.5 -0.5 0.765625 -1.171875q0.265625 -0.671875 0.265625 -1.453125q0 -0.84375 -0.265625 -1.515625q-0.25 -0.6875 -0.734375 -1.15625q-0.484375 -0.484375 -1.15625 -0.734375q-0.671875 -0.25 -1.46875 -0.25q-0.875 0 -1.578125 0.296875q-0.6875 0.296875 -1.171875 0.796875q-0.484375 0.5 -0.75 1.15625q-0.25 0.640625 -0.25 1.359375zm23.576355 -11.90625l0 0.96875q0 0.40625 -0.09375 0.671875q-0.09375 0.265625 -0.1875 0.4375l-7.125 14.375q-0.15625 0.3125 -0.4375 0.53125q-0.265625 0.21875 -0.734375 0.21875l-1.515625 0l7.21875 -14.1875q0.15625 -0.296875 0.3125 -0.546875q0.171875 -0.25 0.375 -0.484375l-8.984375 0q-0.203125 0 -0.375 -0.15625q-0.15625 -0.171875 -0.15625 -0.375l0 -1.453125l11.703125 0z" fill-rule="nonzero"/><path fill="#000000" fill-opacity="0.0" d="m419.91077 97.61155c-12.4999695 0 -25.825623 -15.785889 -24.999908 -31.158745c0.8257141 -15.3728485 15.802856 -30.33266 31.192871 -31.158737c15.389984 -0.8260803 31.192871 12.481575 31.192871 24.96315" fill-rule="evenodd"/><path stroke="#b7b7b7" stroke-width="4.0" stroke-linejoin="round" stroke-linecap="butt" d="m399.9213 84.32919l-0.014343262 -0.02230835c-0.25628662 -0.40734863 -0.5046692 -0.82071686 -0.74472046 -1.2396088c-0.9602051 -1.6755829 -1.7870789 -3.4396286 -2.4513245 -5.2604904c-1.3284302 -3.641739 -2.0065002 -7.510765 -1.8000488 -11.353981c0.8257446 -15.3728485 15.802856 -30.33266 31.192871 -31.158737c15.389984 -0.8260803 31.192871 12.481575 31.192871 24.96315" fill-rule="evenodd"/><path fill="#b7b7b7" stroke="#b7b7b7" stroke-width="4.0" stroke-linecap="butt" d="m396.2648 89.83207l18.775513 4.543228l-11.462555 -15.548981z" fill-rule="evenodd"/><path fill="#000000" fill-opacity="0.0" d="m483.70547 124.03619c0 33.70002 25.606293 51.91973 51.212616 67.40005c25.606262 15.480316 51.212585 28.221237 51.212585 56.442474" fill-rule="evenodd"/><path stroke="#b7b7b7" stroke-width="4.0" stroke-linejoin="round" stroke-linecap="butt" d="m483.70547 124.03618c0 33.700027 25.606293 51.91974 51.212616 67.400055c12.803101 7.740158 25.606262 14.795471 35.20862 23.443405c2.4005737 2.161972 4.6011353 4.4234924 6.5515747 6.8201447c0.4876709 0.59913635 0.95965576 1.2067566 1.4152832 1.8233643c0.22772217 0.30830383 0.45141602 0.6188507 0.67089844 0.93174744c0.10974121 0.1564331 0.21844482 0.3134308 0.32611084 0.47103882l0.004760742 0.007095337" fill-rule="evenodd"/><path fill="#b7b7b7" stroke="#b7b7b7" stroke-width="4.0" stroke-linecap="butt" d="m572.7786 226.86978l11.637878 15.418213l0.99554443 -19.291702z" fill-rule="evenodd"/><path fill="#000000" fill-opacity="0.0" d="m623.5066 172.3517c12.48938 0 25.803833 -15.785889 24.97882 -31.158737c-0.8250122 -15.3728485 -15.789551 -30.332664 -31.166626 -31.158737c-15.377014 -0.8260803 -31.166565 12.481575 -31.166565 24.96315" fill-rule="evenodd"/><path stroke="#b7b7b7" stroke-width="4.0" stroke-linejoin="round" stroke-linecap="butt" d="m643.4875 159.05647l0.0061035156 -0.009429932c0.25598145 -0.40734863 0.5042114 -0.8207092 0.74401855 -1.2396088c0.9594116 -1.6755829 1.7855835 -3.4396362 2.4492188 -5.260498c1.3273315 -3.641739 2.0048828 -7.5107574 1.798584 -11.353973c-0.82507324 -15.3728485 -15.789551 -30.332664 -31.166626 -31.158737c-15.377014 -0.8260803 -31.166565 12.481575 -31.166565 24.96315" fill-rule="evenodd"/><path fill="#b7b7b7" stroke="#b7b7b7" stroke-width="4.0" stroke-linecap="butt" d="m639.82745 153.55595l-11.452515 15.556366l18.772583 -4.5553284z" fill-rule="evenodd"/><path fill="#000000" fill-opacity="0.0" d="m559.71185 145.92706c0 -38.997536 -19.0 -68.652565 -38.0 -77.99509c-19.0 -9.342518 -38.0 1.6274719 -38.0 3.2549362" fill-rule="evenodd"/><path stroke="#b7b7b7" stroke-width="4.0" stroke-linejoin="round" stroke-linecap="butt" d="m559.71185 145.92708c0 -38.99756 -19.0 -68.65258 -38.0 -77.9951c-4.75 -2.3356247 -9.5 -3.4017258 -13.953125 -3.6616516c-0.2783203 -0.016242981 -0.55548096 -0.029342651 -0.8313904 -0.039405823l-0.24795532 -0.007698059" fill-rule="evenodd"/><path fill="#b7b7b7" stroke="#b7b7b7" stroke-width="4.0" stroke-linecap="butt" d="m504.76236 57.90052l-15.454468 11.589684l19.288513 1.0557175z" fill-rule="evenodd"/><path fill="#000000" fill-opacity="0.0" d="m612.5611 311.68448c0 17.972687 8.752686 35.31073 17.972778 35.945404c9.220093 0.6346741 18.907715 -15.4339905 17.972717 -31.185303c-0.9349365 -15.751312 -12.492432 -31.185303 -24.984863 -31.185303" fill-rule="evenodd"/><path stroke="#b7b7b7" stroke-width="4.0" stroke-linejoin="round" stroke-linecap="butt" d="m612.5611 311.68448c0 17.972687 8.752686 35.31073 17.972778 35.945404c9.220093 0.6346741 18.907715 -15.4339905 17.972717 -31.185303c-0.23370361 -3.9378357 -1.1314087 -7.855835 -2.541565 -11.517792c-0.7050781 -1.8309937 -1.5383301 -3.597931 -2.480713 -5.271393l-0.3357544 -0.5834961" fill-rule="evenodd"/><path fill="#b7b7b7" stroke="#b7b7b7" stroke-width="4.0" stroke-linecap="butt" d="m646.951 293.66885l-18.647156 -5.0441284l11.042297 15.85022z" fill-rule="evenodd"/><path fill="#000000" fill-opacity="0.0" d="m612.5611 258.8352c0 -15.014847 0.01574707 -22.52182 0.03149414 -30.029694c0.01574707 -7.5078735 0.03149414 -15.016647 0.03149414 -30.033295" fill-rule="evenodd"/><path stroke="#b7b7b7" stroke-width="4.0" stroke-linejoin="round" stroke-linecap="butt" d="m612.5611 258.8352c0 -15.014847 0.01574707 -22.52182 0.03149414 -30.029694l0.0107421875 -6.03331" fill-rule="evenodd"/><path fill="#b7b7b7" stroke="#b7b7b7" stroke-width="4.0" stroke-linecap="butt" d="m619.21027 222.77792l-6.5912476 -18.158112l-6.6226196 18.146667z" fill-rule="evenodd"/><path fill="#000000" fill-opacity="0.0" d="m548.7664 285.25986c-46.56015 0 -73.76584 -7.2182007 -93.1203 -13.580048c-19.354492 -6.361847 -30.857758 -11.867371 -52.0383 -13.580048c-21.180511 -1.712677 -52.03827 0.36743164 -52.03827 0.7348938" fill-rule="evenodd"/><path stroke="#b7b7b7" stroke-width="4.0" stroke-linejoin="round" stroke-linecap="butt" d="m548.7664 285.25986c-46.56018 0 -73.76584 -7.2182007 -93.1203 -13.580048c-19.354492 -6.361847 -30.857788 -11.867371 -52.0383 -13.580048c-5.295105 -0.42816162 -11.195099 -0.6192932 -17.066467 -0.6593933c-2.9357605 -0.020019531 -5.864319 -0.0023498535 -8.7065735 0.042388916c-0.7106018 0.011169434 -1.4157715 0.024047852 -2.1143188 0.03842163l-0.18661499 0.0043029785" fill-rule="evenodd"/><path fill="#b7b7b7" stroke="#b7b7b7" stroke-width="4.0" stroke-linecap="butt" d="m375.17343 250.92838l-17.764984 7.5872803l18.485779 5.606903z" fill-rule="evenodd"/><path fill="#000000" fill-opacity="0.0" d="m559.71185 258.8352c0 -43.244095 -98.59842 -86.48819 -197.19687 -86.48819" fill-rule="evenodd"/><path stroke="#b7b7b7" stroke-width="4.0" stroke-linejoin="round" stroke-linecap="butt" d="m559.71185 258.8352c0 -21.622055 -24.649597 -43.244095 -61.624023 -59.460632c-18.487183 -8.108276 -40.055603 -14.865158 -63.16461 -19.594986c-11.554504 -2.364914 -23.494171 -4.223053 -35.626373 -5.489975c-3.0330505 -0.31672668 -6.078125 -0.5964966 -9.132263 -0.83799744c-0.7635498 -0.060394287 -1.5276489 -0.11836243 -2.2922363 -0.1739502l-1.3718872 -0.09529114" fill-rule="evenodd"/><path fill="#b7b7b7" stroke="#b7b7b7" stroke-width="4.0" stroke-linecap="butt" d="m386.73044 166.57944l-18.371368 5.971115l17.911438 7.234741z" fill-rule="evenodd"/><path fill="#000000" fill-opacity="0.0" d="m494.6509 360.0c45.748016 0 91.49606 -18.677155 91.49606 -37.35434" fill-rule="evenodd"/><path stroke="#b7b7b7" stroke-width="4.0" stroke-linejoin="round" stroke-linecap="butt" d="m494.6509 360.0c22.874054 0 45.748016 -4.669281 62.903534 -11.673218c4.2888794 -1.7510071 8.220398 -3.6478882 11.705078 -5.654236c0.4356079 -0.25079346 0.8641968 -0.5032959 1.2856445 -0.7574463c0.2107544 -0.1270752 0.41967773 -0.2545166 0.62677 -0.38241577l0.09307861 -0.058135986" fill-rule="evenodd"/><path fill="#b7b7b7" stroke="#b7b7b7" stroke-width="4.0" stroke-linecap="butt" d="m576.44836 345.57138l6.072632 -18.338043l-16.439392 10.144379z" fill-rule="evenodd"/><path fill="#000000" fill-opacity="0.0" d="m419.91077 360.0c-12.4999695 0 -25.825623 15.799194 -24.999908 31.185028c0.8257141 15.385803 15.802856 30.358215 31.192871 31.184998c15.389984 0.8267822 31.192871 -12.492096 31.192871 -24.984192" fill-rule="evenodd"/><path stroke="#b7b7b7" stroke-width="4.0" stroke-linejoin="round" stroke-linecap="butt" d="m419.91077 360.0c-12.4999695 0 -25.825623 15.799225 -24.999908 31.184998c0.8257446 15.385834 15.802856 30.358276 31.192871 31.185028c3.8474731 0.20669556 7.7207947 -0.47070312 11.366547 -1.7982483c1.822876 -0.66381836 3.5888062 -1.4901123 5.2662354 -2.449768c0.41937256 -0.2399292 0.8331604 -0.48815918 1.2409668 -0.7442627l0.020599365 -0.013214111" fill-rule="evenodd"/><path fill="#b7b7b7" stroke="#b7b7b7" stroke-width="4.0" stroke-linecap="butt" d="m449.498 421.02548l4.5584106 -18.77182l-15.558258 11.449951z" fill-rule="evenodd"/><path fill="#000000" fill-opacity="0.0" d="m287.7848 285.25986c-12.4999695 0 -25.825653 15.799194 -24.999908 31.184998c0.8257141 15.385803 15.802856 30.358246 31.192871 31.185028c15.389984 0.8267517 31.19284 -12.492126 31.19284 -24.984222" fill-rule="evenodd"/><path stroke="#b7b7b7" stroke-width="4.0" stroke-linejoin="round" stroke-linecap="butt" d="m287.7848 285.25986c-12.4999695 0 -25.825623 15.799164 -24.999908 31.184998c0.8257141 15.385803 15.802856 30.358246 31.19284 31.185028c3.8475037 0.20669556 7.7207947 -0.47073364 11.366547 -1.7982788c1.822876 -0.66378784 3.5888672 -1.4901123 5.266266 -2.4497375c0.41937256 -0.23989868 0.8331909 -0.48815918 1.2409668 -0.7442627l0.020599365 -0.013214111" fill-rule="evenodd"/><path fill="#b7b7b7" stroke="#b7b7b7" stroke-width="4.0" stroke-linecap="butt" d="m317.372 346.2853l4.5584106 -18.77182l-15.558258 11.449982z" fill-rule="evenodd"/><path fill="#000000" fill-opacity="0.0" d="m362.52493 285.25986c46.56015 0 73.76581 7.3682556 93.1203 13.901611c19.354462 6.533386 30.857758 12.231842 52.03827 13.901642c21.180511 1.6697998 52.0383 -0.6890259 52.0383 -1.3780823" fill-rule="evenodd"/><path stroke="#b7b7b7" stroke-width="4.0" stroke-linejoin="round" stroke-linecap="butt" d="m362.52493 285.25986c46.56015 0 73.76584 7.3682556 93.1203 13.901611c19.354492 6.533386 30.857758 12.231842 52.0383 13.901642c5.295105 0.41744995 11.195068 0.58309937 17.066467 0.58602905c2.93573 0.0014648438 5.864319 -0.03778076 8.706543 -0.10656738c0.7106323 -0.017211914 1.4157715 -0.036254883 2.1143188 -0.05697632l0.21801758 -0.0070495605" fill-rule="evenodd"/><path fill="#b7b7b7" stroke="#b7b7b7" stroke-width="4.0" stroke-linecap="butt" d="m536.28265 320.06702l17.60785 -7.944977l-18.595337 -5.2319336z" fill-rule="evenodd"/><path fill="#000000" fill-opacity="0.0" d="m351.5795 198.77634c0 17.571396 26.425201 19.662476 52.850372 35.14279c26.425201 15.480316 52.850403 44.349884 52.850403 88.69974" fill-rule="evenodd"/><path stroke="#b7b7b7" stroke-width="4.0" stroke-linejoin="round" stroke-linecap="butt" d="m351.57947 198.77635c0 17.57138 26.425201 19.66246 52.850403 35.142776c13.212585 7.740158 26.425201 18.827637 36.334656 33.523773c4.954712 7.3480835 9.083649 15.598328 11.973907 24.783447c0.3612976 1.1481323 0.70321655 2.3108826 1.0249634 3.4883118c0.16088867 0.5886841 0.31674194 1.1810608 0.46743774 1.7771301c0.0753479 0.29800415 0.14941406 0.59695435 0.22219849 0.89682007l0.09185791 0.3866577" fill-rule="evenodd"/><path fill="#b7b7b7" stroke="#b7b7b7" stroke-width="4.0" stroke-linecap="butt" d="m447.98102 299.5283l8.632782 17.281067l4.4949646 -18.78711z" fill-rule="evenodd"/><path fill="#000000" fill-opacity="0.0" d="m612.5611 311.68448c0 22.123718 11.071289 43.059265 22.941223 44.247406c11.869934 1.1881409 24.538635 -17.371124 22.941223 -35.336304c-1.5974121 -17.96518 -17.460938 -35.336304 -34.921814 -35.336304" fill-rule="evenodd"/><path stroke="#b7b7b7" stroke-width="4.0" stroke-linejoin="round" stroke-linecap="butt" d="m612.5611 311.68448c0 22.123688 11.071289 43.059235 22.941223 44.247406c11.869995 1.1881409 24.538635 -17.371094 22.941223 -35.336304c-0.79870605 -8.982605 -5.1639404 -17.81668 -11.512085 -24.40509c-0.39678955 -0.41177368 -0.80126953 -0.8147583 -1.2131348 -1.2084961l-0.17962646 -0.1699524" fill-rule="evenodd"/><path fill="#b7b7b7" stroke="#b7b7b7" stroke-width="4.0" stroke-linecap="butt" d="m648.1684 288.751l-19.282227 -1.1641846l14.022766 13.286224z" fill-rule="evenodd"/></g></svg>